<svg width="152" height="33" viewBox="0 0 152 33" fill="none" xmlns="http://www.w3.org/2000/svg">
<path fill-rule="evenodd" clip-rule="evenodd" d="M0 15.9561L18.4779 15.987L9.25758 21.3064L0 15.9561Z" fill="#F3F4F6"/>
<path fill-rule="evenodd" clip-rule="evenodd" d="M2.66371 17.4961L5.74203 17.5013L3.07832 15.9618L0 15.9565L2.66371 17.4961ZM3.07798 15.9618L5.74203 17.5013L12.7554 17.5127L9.25549 19.5319L5.74168 17.5013L2.66336 17.4961L9.25688 21.3069L15.8243 17.5183L12.7554 17.5131L15.8243 17.5183L18.4776 15.9875L3.07798 15.9621V15.9618ZM9.25549 19.5319L10.0249 19.9768L9.25549 19.5319Z" fill="#F3F4F6"/>
<path fill-rule="evenodd" clip-rule="evenodd" d="M27.7432 0L18.4777 15.9871L18.4811 5.34202L27.7432 0Z" fill="#F3F4F6"/>
<path fill-rule="evenodd" clip-rule="evenodd" d="M23.5341 4.20043L20.0175 10.2684L20.0186 6.2283L19.2485 6.67248L20.0186 6.2283L20.0189 5.34446V6.2283L23.5341 4.20078V4.20043ZM27.7429 0L26.1996 2.66336L23.5345 4.20043V4.20078L26.1996 2.66371L20.0168 13.3317L20.0179 10.2687L20.0168 13.3317L18.4777 15.9871L18.4811 5.34202L27.7432 0L27.7429 0Z" fill="#F3F4F6"/>
<path fill-rule="evenodd" clip-rule="evenodd" d="M27.69 32.0042L18.4777 15.9868L27.6949 21.3121L27.69 32.0042Z" fill="#F3F4F6"/>
<path fill-rule="evenodd" clip-rule="evenodd" d="M27.6914 28.9279L26.1571 26.2601L27.6914 28.9279L27.6949 21.3125L21.1299 17.5194L22.66 20.1799L21.1299 17.5194L18.4777 15.9868L27.69 32.0045L27.6914 28.9279ZM26.1568 26.2597L22.66 20.1799L26.1585 22.2012L26.1568 26.2597ZM26.1585 22.2012L26.9237 22.6433L26.1585 22.2012Z" fill="#F3F4F6"/>
<path fill-rule="evenodd" clip-rule="evenodd" d="M77.7469 21.5376L78.0485 20.0979C80.9279 20.0979 83.8076 20.0979 86.6873 20.0979L87.3659 16.8582C85.4462 16.8582 83.5265 16.8582 81.6068 16.8582L81.9084 15.4182C83.8281 15.4182 85.7478 15.4182 87.6675 15.4182L88.3461 12.1785H79.7073L80.0089 10.7388H91.5274L89.2651 21.5376H77.7466H77.7469Z" fill="#F3F4F6"/>
<path fill-rule="evenodd" clip-rule="evenodd" d="M132.46 21.5381L134.723 10.7393H137.602L135.642 20.0984H139.961L141.922 10.7393H144.801L142.841 20.0984H147.16L149.121 10.7393H152L149.738 21.5381H132.46Z" fill="#F3F4F6"/>
<path fill-rule="evenodd" clip-rule="evenodd" d="M97.2622 10.7393C99.9102 10.7393 102.559 10.7393 105.207 10.7393L102.944 21.5381H100.065L102.025 12.1793H98.8796L95.4308 16.139L94.3052 21.5384H91.4255L92.6078 16.139L97.2618 10.7396L97.2622 10.7393Z" fill="#F3F4F6"/>
<path fill-rule="evenodd" clip-rule="evenodd" d="M132.563 10.7391L130.3 21.5379H127.421L128.401 16.8585H124.082L124.384 15.4185H128.703L129.382 12.1788C127.462 12.1788 125.542 12.1788 123.622 12.1788C122.969 15.2985 122.315 18.4182 121.662 21.5376H118.782L121.045 10.7388H132.563L132.563 10.7391Z" fill="#F3F4F6"/>
<path fill-rule="evenodd" clip-rule="evenodd" d="M110.11 10.7393H107.205L104.968 21.5381H107.847L109.456 13.8631L110.443 16.0225L111.43 18.1825L115.215 13.8631L113.607 21.5381H116.487L118.749 10.7393H115.869L112.085 15.0586L110.11 10.7393Z" fill="#F3F4F6"/>
<path fill-rule="evenodd" clip-rule="evenodd" d="M64.1696 10.7393L61.9073 21.5381H50.3888L52.6511 10.7393H64.1696ZM55.2292 12.1789L53.5701 20.0981H59.3292L60.9883 12.1789H55.2292Z" fill="#F3F4F6"/>
<path fill-rule="evenodd" clip-rule="evenodd" d="M50.4916 10.7393L50.19 12.1793H41.5513L39.8921 20.0984H48.5312L48.2293 21.5381H36.7108L38.9731 10.7393H50.4916Z" fill="#F3F4F6"/>
<path fill-rule="evenodd" clip-rule="evenodd" d="M73.008 20.0984H67.2489L68.9081 12.1793H74.6647L73.9885 15.419C72.5488 15.419 71.1088 15.419 69.6691 15.419L69.3648 16.859C70.8045 16.859 72.2445 16.859 73.6842 16.859L73.008 20.0988V20.0984ZM66.947 21.5381H75.5983L76.4908 17.2177L75.2772 16.1387L76.9434 15.0586L77.8234 10.7393H66.3299L64.0676 21.5381H66.947Z" fill="#F3F4F6"/>
</svg>
