<svg width="370" height="78" viewBox="0 0 370 78" fill="none" xmlns="http://www.w3.org/2000/svg">
<path fill-rule="evenodd" clip-rule="evenodd" d="M0 38.8409L44.9796 38.9163L22.5351 51.865L0 38.8409Z" fill="#EA5E20"/>
<path fill-rule="evenodd" clip-rule="evenodd" d="M6.48409 42.5888L13.9774 42.6015L7.49336 38.854L0 38.8413L6.48409 42.5888ZM7.49251 38.854L13.9774 42.6015L31.0496 42.6295L22.53 47.5446L13.9766 42.6015L6.48324 42.5888L22.5334 51.8654L38.5201 42.643L31.0496 42.6303L38.5201 42.643L44.9788 38.9167L7.49251 38.8549V38.854ZM22.53 47.5446L24.403 48.6276L22.53 47.5446Z" fill="#EA5E20"/>
<path fill-rule="evenodd" clip-rule="evenodd" d="M67.5351 0L44.9805 38.9164L44.9889 13.0037L67.5351 0Z" fill="#EA5E20"/>
<path fill-rule="evenodd" clip-rule="evenodd" d="M57.2891 10.2248L48.7288 24.9956L48.7314 15.1611L46.8568 16.2424L48.7314 15.1611L48.7322 13.0097V15.1611L57.2891 10.2257V10.2248ZM67.5342 0L63.7774 6.48324L57.2899 10.2248V10.2257L63.7774 6.48408L48.7271 32.4526L48.7297 24.9965L48.7271 32.4526L44.9805 38.9164L44.9889 13.0037L67.5351 0L67.5342 0Z" fill="#EA5E20"/>
<path fill-rule="evenodd" clip-rule="evenodd" d="M67.4055 77.9064L44.9805 38.9164L67.4174 51.8795L67.4055 77.9064Z" fill="#EA5E20"/>
<path fill-rule="evenodd" clip-rule="evenodd" d="M67.4089 70.4173L63.6741 63.923L67.4089 70.4173L67.4174 51.8795L51.4366 42.6461L55.1613 49.1226L51.4366 42.6461L44.9805 38.9155L67.4055 77.9064L67.4089 70.4173ZM63.6732 63.9222L55.1613 49.1226L63.6775 54.0428L63.6732 63.9222ZM63.6775 54.0428L65.5402 55.119L63.6775 54.0428Z" fill="#EA5E20"/>
<path fill-rule="evenodd" clip-rule="evenodd" d="M189.252 51.9819L189.986 48.4774C196.995 48.4774 204.005 48.4774 211.015 48.4774L212.667 40.5912C207.994 40.5912 203.321 40.5912 198.648 40.5912L199.382 37.0858C204.055 37.0858 208.728 37.0858 213.401 37.0858L215.053 29.1996H194.024L194.758 25.6951H222.797L217.29 51.9819H189.251H189.252Z" fill="#525C53"/>
<path fill-rule="evenodd" clip-rule="evenodd" d="M322.436 51.9819L327.943 25.6951H334.952L330.18 48.4774H340.694L345.467 25.6951H352.477L347.704 48.4774H358.218L362.991 25.6951H370.001L364.494 51.9819H322.436Z" fill="#525C53"/>
<path fill-rule="evenodd" clip-rule="evenodd" d="M236.755 25.6951C243.201 25.6951 249.648 25.6951 256.094 25.6951L250.587 51.9819H243.577L248.35 29.2004H240.692L232.297 38.8394L229.557 51.9828H222.547L225.425 38.8394L236.754 25.6959L236.755 25.6951Z" fill="#525C53"/>
<path fill-rule="evenodd" clip-rule="evenodd" d="M322.685 25.6952L317.178 51.9821H310.169L312.555 40.5913H302.041L302.775 37.0859H313.289L314.941 29.1997C310.268 29.1997 305.595 29.1997 300.922 29.1997C299.331 36.7938 297.74 44.3879 296.149 51.9812H289.14L294.647 25.6943H322.686L322.685 25.6952Z" fill="#525C53"/>
<path fill-rule="evenodd" clip-rule="evenodd" d="M268.031 25.6951H260.961L255.514 51.9819H262.524L266.438 33.2993L268.841 38.5557L271.245 43.8138L280.458 33.2993L276.543 51.9819H283.553L289.06 25.6951H282.05L272.838 36.2095L268.031 25.6951Z" fill="#525C53"/>
<path fill-rule="evenodd" clip-rule="evenodd" d="M156.201 25.6951L150.694 51.9819H122.656L128.163 25.6951H156.201ZM134.439 29.1996L130.4 48.4766H144.419L148.457 29.1996H134.439Z" fill="#EA5E20"/>
<path fill-rule="evenodd" clip-rule="evenodd" d="M122.907 25.6951L122.173 29.2004H101.144L97.1053 48.4774H118.135L117.4 51.9819H89.3613L94.8683 25.6951H122.907Z" fill="#EA5E20"/>
<path fill-rule="evenodd" clip-rule="evenodd" d="M177.717 48.4774H163.698L167.737 29.2004H181.75L180.104 37.0867C176.599 37.0867 173.094 37.0867 169.589 37.0867L168.849 40.592C172.353 40.592 175.859 40.592 179.363 40.592L177.717 48.4783V48.4774ZM162.963 51.9819H184.022L186.195 41.465L183.241 38.8385L187.297 36.2095L189.439 25.6951H161.461L155.954 51.9819H162.963Z" fill="#EA5E20"/>
</svg>
