<svg width="144" height="144" viewBox="0 0 144 144" fill="none" xmlns="http://www.w3.org/2000/svg">
<g clip-path="url(#clip0_234_4190)">
<path d="M77.5465 47.3769C80.2979 47.3769 82.5285 45.1464 82.5285 42.3949C82.5285 39.6435 80.2979 37.4129 77.5465 37.4129C74.795 37.4129 72.5645 39.6435 72.5645 42.3949C72.5645 45.1464 74.795 47.3769 77.5465 47.3769Z" stroke="#0A94D6" stroke-width="2"/>
<path d="M81.4164 57.4395C87.1601 57.4395 91.8164 52.7833 91.8164 47.0395C91.8164 41.2957 87.1601 36.6395 81.4164 36.6395C75.6726 36.6395 71.0164 41.2957 71.0164 47.0395C71.0164 52.7833 75.6726 57.4395 81.4164 57.4395Z" stroke="#0A94D6" stroke-width="2"/>
<path d="M84.5124 76.016C94.8159 76.016 103.168 67.6634 103.168 57.36C103.168 47.0565 94.8159 38.704 84.5124 38.704C74.209 38.704 65.8564 47.0565 65.8564 57.36C65.8564 67.6634 74.209 76.016 84.5124 76.016Z" stroke="#0A94D6" stroke-width="2"/>
<path d="M84.1904 92.9138C98.3764 92.9138 109.876 81.4138 109.876 67.2278C109.876 53.0419 98.3764 41.5418 84.1904 41.5418C70.0044 41.5418 58.5044 53.0419 58.5044 67.2278C58.5044 81.4138 70.0044 92.9138 84.1904 92.9138Z" stroke="#0A94D6" stroke-width="2"/>
<path d="M77.8044 107.231C95.7305 107.231 110.262 92.6996 110.262 74.7735C110.262 56.8474 95.7305 42.3155 77.8044 42.3155C59.8784 42.3155 45.3464 56.8474 45.3464 74.7735C45.3464 92.6996 59.8784 107.231 77.8044 107.231Z" stroke="#0A94D6" stroke-width="2"/>
<path d="M66.4537 47.5058C69.2052 47.5058 71.4357 45.2753 71.4357 42.5238C71.4357 39.7724 69.2052 37.5418 66.4537 37.5418C63.7022 37.5418 61.4717 39.7724 61.4717 42.5238C61.4717 45.2753 63.7022 47.5058 66.4537 47.5058Z" stroke="#B43841" stroke-width="2"/>
<path d="M62.5836 57.5684C68.3274 57.5684 72.9836 52.9122 72.9836 47.1684C72.9836 41.4246 68.3274 36.7684 62.5836 36.7684C56.8398 36.7684 52.1836 41.4246 52.1836 47.1684C52.1836 52.9122 56.8398 57.5684 62.5836 57.5684Z" stroke="#B43841" stroke-width="2"/>
<path d="M59.4885 76.1449C69.7919 76.1449 78.1445 67.7923 78.1445 57.4889C78.1445 47.1854 69.7919 38.8329 59.4885 38.8329C49.1851 38.8329 40.8325 47.1854 40.8325 57.4889C40.8325 67.7923 49.1851 76.1449 59.4885 76.1449Z" stroke="#B43841" stroke-width="2"/>
<path d="M59.8105 93.0428C73.9965 93.0428 85.4965 81.5427 85.4965 67.3568C85.4965 53.1708 73.9965 41.6707 59.8105 41.6707C45.6245 41.6707 34.1245 53.1708 34.1245 67.3568C34.1245 81.5427 45.6245 93.0428 59.8105 93.0428Z" stroke="#B43841" stroke-width="2"/>
<path d="M66.1955 107.36C84.1216 107.36 98.6535 92.8285 98.6535 74.9024C98.6535 56.9763 84.1216 42.4444 66.1955 42.4444C48.2695 42.4444 33.7375 56.9763 33.7375 74.9024C33.7375 92.8285 48.2695 107.36 66.1955 107.36Z" stroke="#B43841" stroke-width="2"/>
</g>
<defs>
<clipPath id="clip0_234_4190">
<rect width="77.525" height="71.721" fill="white" transform="translate(33.2375 36.1395)"/>
</clipPath>
</defs>
</svg>
