<svg width="144" height="144" viewBox="0 0 144 144" fill="none" xmlns="http://www.w3.org/2000/svg">
<path d="M53.0699 38.3525C56.986 34.4647 56.9262 28.5396 51.8975 23.738C60.0416 24.6681 75.0048 27.2354 84.5699 39.8512C84.8771 40.3046 85.1746 40.7634 85.4561 41.22C84.175 40.2027 82.7971 39.3472 81.3384 38.6574C72.3613 33.9805 61.8369 34.0486 53.0695 38.3521L53.0699 38.3525Z" fill="#2777E1"/>
<path d="M80.8529 32.2663C86.1139 33.922 91.3202 31.1059 93.2173 24.4125C96.1936 32.0602 100.903 46.5114 94.2177 60.8669C93.9606 61.3503 93.6938 61.8278 93.4219 62.2902C93.7233 60.6807 93.8363 59.0615 93.7656 57.4477C93.7109 47.3152 88.7435 38.0245 80.8525 32.2659L80.8529 32.2663Z" fill="#2777E1"/>
<path d="M98.7743 51.9561C100.179 57.2959 105.333 60.2065 112 58.2467C107.124 64.8441 97.4217 76.5359 81.7276 78.5222C81.1824 78.5619 80.6364 78.5903 80.1008 78.6062C81.6212 78.0039 83.05 77.2366 84.3758 76.317C92.9091 70.8706 98.113 61.7106 98.7743 51.9557V51.9561Z" fill="#2777E1"/>
<path d="M90.9299 78.3784C87.0138 82.2662 87.0736 88.1913 92.1024 92.9929C83.9582 92.0628 68.995 89.4955 59.4299 76.8793C59.1227 76.4263 58.8253 75.9671 58.5437 75.5106C59.8249 76.5278 61.2027 77.3829 62.6614 78.0731C71.6385 82.7496 82.1629 82.6819 90.9303 78.378L90.9299 78.3784Z" fill="#2777E1"/>
<path d="M64.1558 84.7871C58.8354 83.3351 53.7406 86.3496 52.1017 93.111C48.8341 85.5839 43.5728 71.3248 49.7017 56.7223C49.9398 56.2296 50.1883 55.742 50.4423 55.2695C50.2031 56.8891 50.1522 58.5115 50.2846 60.1213C50.7285 70.2441 56.0493 79.3365 64.1554 84.7875L64.1558 84.7871Z" fill="#2777E1"/>
<path d="M45.2261 64.775C43.8218 59.4351 38.6672 56.5245 32 58.484C36.8765 51.887 46.5787 40.1951 62.2724 38.2084C62.8177 38.1688 63.3637 38.1404 63.8992 38.1245C62.3785 38.7268 60.9501 39.494 59.6243 40.4137C51.091 45.86 45.8871 55.02 45.2257 64.775H45.2261Z" fill="#2777E1"/>
<path fill-rule="evenodd" clip-rule="evenodd" d="M20.162 108.308L18.4288 110.212C17.5119 109.674 16.8501 109.405 16.447 109.405C16.1344 109.405 15.8657 109.522 15.6408 109.754C15.4156 109.986 15.3049 110.262 15.3049 110.582C15.3049 111.217 15.8824 111.769 17.0381 112.24C17.8847 112.603 18.5259 112.933 18.9628 113.226C19.3993 113.518 19.7655 113.922 20.061 114.443C20.3566 114.961 20.5045 115.523 20.5045 116.128C20.5045 117.241 20.0544 118.206 19.1577 119.027C18.2606 119.851 17.1993 120.262 15.9767 120.262C14.6326 120.262 13.3091 119.629 12 118.365L13.8303 116.225C14.6567 117.073 15.4257 117.497 16.148 117.497C16.4839 117.497 16.8062 117.349 17.1154 117.053C17.428 116.76 17.5829 116.451 17.5829 116.124C17.5829 115.458 16.8707 114.86 15.4466 114.335C14.633 114.032 14.0555 113.749 13.7099 113.491C13.3639 113.232 13.0719 112.852 12.8365 112.357C12.6016 111.859 12.4839 111.355 12.4839 110.834C12.4839 109.683 12.8598 108.752 13.6089 108.035C14.3581 107.319 15.3387 106.963 16.5515 106.963C17.9861 106.963 19.1884 107.41 20.1628 108.308L20.162 108.308ZM22.0766 113.609C22.0766 111.695 22.7084 110.117 23.971 108.87C25.2343 107.625 26.7325 107.003 28.4622 107.003C30.3803 107.003 31.9625 107.629 33.2153 108.88C34.4681 110.135 35.0965 111.716 35.0965 113.626C35.0965 115.526 34.4751 117.103 33.2355 118.358C31.9962 119.613 30.4347 120.242 28.5531 120.242C26.6692 120.242 25.1201 119.616 23.9014 118.368C22.6851 117.12 22.077 115.533 22.077 113.609H22.0766ZM28.6001 109.586C27.5151 109.566 26.6416 109.939 25.9764 110.71C25.3119 111.48 24.9791 112.472 24.9791 113.686C24.9791 114.837 25.3185 115.789 25.997 116.545C26.6723 117.302 27.529 117.679 28.5632 117.679C29.6483 117.679 30.5248 117.305 31.1931 116.559C31.8619 115.816 32.1939 114.83 32.1939 113.609C32.1939 112.405 31.8685 111.44 31.2133 110.71C30.5586 109.98 29.6883 109.607 28.6001 109.586V109.586ZM37.4778 107.144H40.2592V117.295H44.048V120.08H37.4778V107.144V107.144ZM50.4938 107.144H52.6706L57.9312 120.08H55.1296L54.095 117.537H49.1373L48.123 120.08H45.3342L50.4938 107.144ZM51.5925 111.382L50.0709 115.196H53.144L51.5925 111.382ZM59.8454 107.144H64.1083C65.4046 107.144 66.4291 107.484 67.1813 108.166C67.9336 108.849 68.3099 109.774 68.3099 110.935C68.3099 111.597 68.1386 112.287 67.7926 113.003C67.4466 113.716 66.8085 114.278 65.878 114.685L69.499 120.08H66.3075L62.9487 115.075H62.6263V120.08H59.845V107.144H59.8454ZM62.6267 109.445V112.815H63.2384C64.7126 112.815 65.4485 112.22 65.4485 111.033C65.4485 110.545 65.2574 110.158 64.8737 109.872C64.4912 109.586 63.9568 109.445 63.2784 109.445H62.6267V109.445ZM82.0183 109.949L80.1674 111.685C79.7814 111.016 79.3006 110.514 78.7298 110.185C78.162 109.852 77.5643 109.687 76.9394 109.687C75.9282 109.687 75.0517 110.071 74.3095 110.841C73.5635 111.608 73.1907 112.512 73.1907 113.558C73.1907 114.668 73.5635 115.607 74.3095 116.38C75.0517 117.15 75.9488 117.537 77 117.537C77.5709 117.537 78.1185 117.393 78.649 117.103C79.1764 116.814 79.5997 116.273 79.9224 115.479H76.8591V112.957H82.8241V114.632C82.8241 115.493 82.5286 116.418 81.9375 117.407C81.35 118.399 80.5705 119.118 79.6063 119.576C78.6424 120.033 77.6684 120.262 76.6843 120.262C74.9006 120.262 73.3957 119.616 72.1697 118.321C70.9437 117.026 70.3293 115.425 70.3293 113.518C70.3293 111.712 70.9608 110.168 72.2233 108.887C73.4866 107.606 75.0047 106.963 76.7853 106.963C79.0529 106.963 80.7993 107.959 82.0187 109.95L82.0183 109.949ZM84.8599 107.144H89.1228C90.4188 107.144 91.4436 107.484 92.1959 108.166C92.9481 108.849 93.3244 109.774 93.3244 110.935C93.3244 111.597 93.1531 112.287 92.8071 113.003C92.4611 113.716 91.823 114.278 90.8929 114.685L94.5139 120.08H91.3228L87.964 115.075H87.6413V120.08H84.8603V107.144H84.8599ZM87.6409 109.445V112.815H88.2525C89.7271 112.815 90.4626 112.22 90.4626 111.033C90.4626 110.545 90.2712 110.158 89.8879 109.872C89.5054 109.586 88.971 109.445 88.2925 109.445H87.6409V109.445ZM95.4207 113.609C95.4207 111.695 96.0522 110.117 97.3151 108.87C98.578 107.625 100.076 107.003 101.806 107.003C103.724 107.003 105.306 107.629 106.559 108.88C107.813 110.135 108.441 111.716 108.441 113.626C108.441 115.526 107.819 117.103 106.58 118.358C105.34 119.613 103.778 120.242 101.897 120.242C100.013 120.242 98.4642 119.616 97.2448 118.368C96.0293 117.12 95.4211 115.533 95.4211 113.609H95.4207ZM101.944 109.586C100.859 109.566 99.9858 109.939 99.3202 110.71C98.6553 111.48 98.3229 112.472 98.3229 113.686C98.3229 114.837 98.6623 115.789 99.3408 116.545C100.016 117.302 100.872 117.679 101.907 117.679C102.992 117.679 103.869 117.305 104.537 116.559C105.206 115.816 105.538 114.83 105.538 113.609C105.538 112.405 105.212 111.44 104.557 110.71C103.902 109.98 103.032 109.607 101.944 109.586V109.586ZM110.761 107.144H113.502V115.055C113.502 115.788 113.707 116.38 114.114 116.827C114.523 117.274 115.061 117.497 115.726 117.497C116.492 117.497 117.083 117.271 117.506 116.821C117.927 116.373 118.138 115.738 118.138 114.917V107.144H120.879V115.522C120.879 116.255 120.688 117.019 120.308 117.813C119.925 118.603 119.34 119.209 118.548 119.629C117.755 120.049 116.868 120.261 115.891 120.261C114.114 120.261 112.817 119.767 111.995 118.778C111.172 117.789 110.762 116.75 110.762 115.66V107.144L110.761 107.144ZM123.616 107.144H128.033C129.222 107.144 130.18 107.491 130.908 108.187C131.638 108.88 132 109.795 132 110.928C132 111.671 131.822 112.378 131.466 113.047C131.11 113.713 130.572 114.214 129.85 114.543C129.132 114.87 128.517 115.042 128.006 115.055L126.398 115.095V120.08H123.616V107.144ZM126.357 109.485V112.795H127.426C127.886 112.795 128.278 112.627 128.608 112.294C128.934 111.957 129.098 111.56 129.098 111.1C129.098 110.575 128.913 110.168 128.544 109.879C128.174 109.589 127.65 109.445 126.968 109.445L126.357 109.485Z" fill="#2777E1"/>
</svg>
