<svg width="1226" height="759" viewBox="0 0 1226 759" fill="none" xmlns="http://www.w3.org/2000/svg">
<rect x="613" width="332" height="77" rx="20" fill="#F9F8FC"/>
<rect x="613" y="109" width="341" height="26" rx="13" fill="#F9F8FC"/>
<rect x="613" y="147" width="460" height="11" rx="5.5" fill="#F9F8FC"/>
<rect x="613" y="166" width="460" height="11" rx="5.5" fill="#F9F8FC"/>
<rect x="613" y="185" width="460" height="11" rx="5.5" fill="#F9F8FC"/>
<rect x="613" y="220" width="40" height="40" rx="20" fill="#F9F8FC"/>
<rect x="663" y="220" width="87" height="40" rx="20" fill="#F9F8FC"/>
<rect x="790" y="220" width="40" height="40" rx="20" fill="#F9F8FC"/>
<rect x="840" y="220" width="87" height="40" rx="20" fill="#F9F8FC"/>
<rect x="613" y="292" width="137" height="40" rx="20" fill="#F9F8FC"/>
<rect x="772" y="292" width="137" height="40" rx="20" fill="#F9F8FC"/>
<rect x="931" y="292" width="137" height="40" rx="20" fill="#F9F8FC"/>
<rect x="613" y="364" width="40" height="40" rx="20" fill="#F9F8FC"/>
<rect x="669" y="364" width="40" height="40" rx="20" fill="#F9F8FC"/>
<rect x="633" y="427" width="12" height="12" rx="6" fill="#F9F8FC"/>
<rect x="655" y="427" width="12" height="12" rx="6" fill="#F9F8FC"/>
<rect x="677" y="427" width="12" height="12" rx="6" fill="#F9F8FC"/>
<rect y="486" width="289" height="26" rx="13" fill="#F9F8FC"/>
<rect x="1130" y="479" width="40" height="40" rx="20" fill="#F9F8FC"/>
<rect x="1186" y="479" width="40" height="40" rx="20" fill="#F9F8FC"/>
<rect x="1" y="541" width="184" height="184" rx="20" fill="#F9F8FC"/>
<rect x="209" y="541" width="184" height="184" rx="20" fill="#F9F8FC"/>
<rect x="417" y="541" width="184" height="184" rx="20" fill="#F9F8FC"/>
<rect x="625" y="541" width="184" height="184" rx="20" fill="#F9F8FC"/>
<rect x="833" y="541" width="184" height="184" rx="20" fill="#F9F8FC"/>
<rect x="1041" y="541" width="184" height="184" rx="20" fill="#F9F8FC"/>
<rect x="585" y="747" width="12" height="12" rx="6" fill="#F9F8FC"/>
<rect x="607" y="747" width="12" height="12" rx="6" fill="#F9F8FC"/>
<rect x="629" y="747" width="12" height="12" rx="6" fill="#F9F8FC"/>
<circle cx="257.5" cy="219.5" r="198.5" fill="#F9F8FC"/>
</svg>
