<svg width="347" height="83" viewBox="0 0 347 83" fill="none" xmlns="http://www.w3.org/2000/svg">
<path d="M52.14 28.2267V26.5504C52.14 18.0971 45.2877 11.241 36.8273 11.241C28.3722 11.241 21.5146 18.0945 21.5146 26.5504V28.2267C19.8933 28.2267 18.5783 30.0906 18.5783 32.3874C18.5783 34.6842 19.8933 36.548 21.5146 36.548C21.5622 36.548 21.6097 36.5427 21.6599 36.5374C22.6659 44.0139 29.0719 49.7823 36.8273 49.7823C44.5853 49.7823 50.9913 44.0139 51.9974 36.5374C52.0449 36.5427 52.0951 36.548 52.14 36.548C53.7639 36.548 55.0789 34.6842 55.0789 32.3874C55.0789 30.0906 53.7639 28.2267 52.14 28.2267Z" fill="white" stroke="#5C5E62" stroke-width="2" stroke-miterlimit="10" stroke-linecap="round" stroke-linejoin="round"/>
<path d="M70.1249 67.4936C67.9596 59.2911 61.4797 58.3988 61.4797 58.3988L43.6875 54.1537V48.2269C41.6226 49.2644 39.2936 49.8505 36.8246 49.8505C34.3583 49.8505 32.0267 49.2644 29.9671 48.2269V54.1537L12.1749 58.3988C12.1749 58.3988 5.6923 59.2938 3.52175 67.4936L1 81.8578H36.822H72.6467L70.1249 67.4936Z" fill="white" stroke="#5C5E62" stroke-width="2" stroke-miterlimit="10" stroke-linecap="round" stroke-linejoin="round"/>
<path d="M29.6713 53.8947L22.959 55.4971L30.717 64.9404L36.3889 58.0183L29.6713 53.8947Z" fill="white" stroke="#5C5E62" stroke-width="2" stroke-miterlimit="10" stroke-linecap="round" stroke-linejoin="round"/>
<path d="M44.0228 53.9572L50.6982 55.5518L42.9824 64.9422L36.3889 58.0202L44.0228 53.9572Z" fill="white" stroke="#5C5E62" stroke-width="2" stroke-miterlimit="10" stroke-linecap="round" stroke-linejoin="round"/>
<path d="M36.6821 58.0216L33.2123 62.2562L36.6821 65.9152L40.4422 61.9684L36.6821 58.0216Z" fill="#E55E33" stroke="#5C5E62" stroke-width="2" stroke-miterlimit="10"/>
<path d="M38.4776 64.1717L36.6821 65.9141L35.1479 64.2931L30.9547 81.7884H36.8273H42.7026L38.4776 64.1717Z" fill="#E55E33" stroke="#5C5E62" stroke-width="2" stroke-miterlimit="10"/>
<path d="M38.8447 9.51926L38.1423 1H36.8273H35.5149L34.8125 9.51926H38.8447Z" fill="#E55E33" stroke="#5C5E62" stroke-width="2" stroke-miterlimit="10"/>
<path d="M54.3369 23.4758C54.3369 17.8315 51.9683 12.0948 47.3473 8.33282C46.2039 7.4009 44.9417 6.63002 43.6003 6.03074L43.2148 3.54915C41.4377 2.72547 39.7583 2.31627 38.2373 2.15523L38.8446 9.51553H34.8125L35.4198 2.13147C32.3726 2.40603 30.4423 3.54915 30.4423 3.54915L29.9987 6.03074C25.3751 8.1533 22.0189 12.2611 20.4398 16.794C19.6873 18.9482 19.3229 21.2107 19.3229 23.4758H54.3369Z" fill="white" stroke="#5C5E62" stroke-width="2" stroke-miterlimit="10"/>
<path d="M43.2148 3.55292L44.5562 12.1963" stroke="#5C5E62" stroke-width="2" stroke-miterlimit="10"/>
<path d="M28.8976 12.1963L30.4424 3.55292" stroke="#5C5E62" stroke-width="2" stroke-miterlimit="10"/>
<path d="M25.0635 14.5132C25.0635 14.5132 23.289 17.6257 23.4263 20.0017H34.3768" stroke="#5C5E62" stroke-width="2" stroke-miterlimit="10"/>
<path d="M54.5323 23.4758H36.8273H19.146C19.146 23.4758 17.5511 23.5365 17.5643 25.9891H36.8273H56.0902C56.1061 23.5365 54.5323 23.4758 54.5323 23.4758Z" fill="white" stroke="#5C5E62" stroke-width="2" stroke-miterlimit="10"/>
<path d="M219.148 12.6604H160.476C158.361 12.6604 156.647 14.3778 156.647 16.5002V57.2893C156.647 59.4117 158.361 61.1291 160.476 61.1291H200.342L199.562 70.1975L210.172 61.1291H219.151C221.267 61.1291 222.983 59.4117 222.983 57.2893V16.5029C222.981 14.3804 221.264 12.6604 219.148 12.6604Z" stroke="#5C5E62" stroke-width="2" stroke-miterlimit="10" stroke-linecap="round" stroke-linejoin="round"/>
<path d="M201.893 35.8518C201.893 35.4915 201.875 35.1391 201.843 34.7893L204.208 34.166L203.148 30.1078L200.735 30.7364C200.229 29.6765 199.565 28.7008 198.78 27.8434L200.326 25.8314L197.011 23.2698L195.444 25.3028C194.431 24.7847 193.333 24.4112 192.176 24.2034V21.6155H187.987V24.2034C186.887 24.4007 185.842 24.7478 184.871 25.2265L183.333 23.1698L179.978 25.6868L181.501 27.7224C180.923 28.3326 180.406 29.0085 179.968 29.7317L177.616 28.8638L176.167 32.8036L178.474 33.6557C178.341 34.3685 178.267 35.0996 178.267 35.8492C178.267 36.1096 178.28 36.3647 178.296 36.6198L175.952 37.2352L177.012 41.296L179.304 40.6937C179.8 41.8009 180.461 42.8187 181.257 43.7156L179.831 45.5645L183.147 48.1288L184.548 46.3062C185.609 46.869 186.761 47.274 187.981 47.4923V49.7804H192.171V47.4923C193.331 47.2845 194.431 46.9058 195.449 46.3877L196.827 48.2287L200.179 45.7118L198.783 43.8445C199.373 43.1975 199.893 42.4874 200.331 41.7194L202.541 42.5347L203.987 38.5976L201.733 37.7638C201.838 37.1432 201.893 36.5041 201.893 35.8518ZM190.081 43.7629C185.64 43.7629 182.039 40.1545 182.039 35.7019C182.039 31.2493 185.64 27.6435 190.081 27.6435C194.525 27.6435 198.124 31.2493 198.124 35.7019C198.124 40.1545 194.522 43.7629 190.081 43.7629Z" fill="#E55E33" stroke="#5C5E62" stroke-width="2" stroke-miterlimit="10"/>
<path d="M161.802 33.9138V50.8853C161.802 50.8853 162.138 53.8073 164.818 54.4779H183.585" stroke="#5C5E62" stroke-width="2" stroke-miterlimit="10"/>
<path d="M345.095 71.1324C345.095 73.1286 343.481 74.7461 341.486 74.7461H310.592C308.6 74.7461 306.983 73.1286 306.983 71.1324V11.7254C306.983 9.72922 308.6 8.11176 310.592 8.11176H341.489C343.481 8.11176 345.098 9.72922 345.098 11.7254V71.1324H345.095Z" fill="#E55E33" stroke="#5C5E62" stroke-width="2" stroke-miterlimit="10"/>
<path d="M345.095 14.965H306.983V67.8916H345.095V14.965Z" fill="white" stroke="#5C5E62" stroke-width="2" stroke-miterlimit="10"/>
<path d="M319.459 11.6708H328.638" stroke="#5C5E62" stroke-width="2" stroke-miterlimit="10"/>
<path d="M329.85 11.6708H332.62" stroke="#5C5E62" stroke-width="2" stroke-miterlimit="10"/>
<path d="M311.731 49.1667V63.908H326.039" fill="white"/>
<path d="M311.731 49.1667V63.908H326.039" stroke="#5C5E62" stroke-width="2" stroke-miterlimit="10"/>
<path d="M335.352 42.5865L337.268 42.4419L336.987 38.7362L335.095 38.8808C334.811 37.842 334.355 36.8767 333.756 36.0141L335.055 34.6491L332.373 32.0848L331.081 33.4367C330.123 32.8239 329.047 32.3794 327.89 32.1479V30.2859H324.186V32.1479C322.729 32.4399 321.396 33.0685 320.27 33.9521L318.855 32.7239L316.425 35.5302L317.85 36.7689C317.254 37.8262 316.86 39.0123 316.713 40.2721L314.813 40.4167L315.089 44.1198L317.013 43.9752C317.306 44.9983 317.768 45.9503 318.364 46.7972L317.023 48.2069L319.706 50.7712L321.057 49.3483C322.002 49.9427 323.057 50.3714 324.189 50.6002V52.5701H327.895V50.6002C329.323 50.3135 330.633 49.7034 331.748 48.846L333.226 50.1294L335.659 47.3258L334.194 46.0503C334.788 45.0061 335.192 43.8358 335.352 42.5865ZM326.039 44.3855C324.409 44.3855 323.089 43.0599 323.089 41.4293C323.089 39.7961 324.409 38.4732 326.039 38.4732C327.669 38.4732 328.989 39.7987 328.989 41.4293C328.989 43.0599 327.669 44.3855 326.039 44.3855Z" fill="#E55E33" stroke="#5C5E62" stroke-width="2" stroke-miterlimit="10"/>
<path d="M328.989 41.4295C328.989 43.0602 327.669 44.3857 326.039 44.3857C324.409 44.3857 323.089 43.0602 323.089 41.4295C323.089 39.7963 324.409 38.4734 326.039 38.4734C327.669 38.4734 328.989 39.7963 328.989 41.4295Z" fill="white" stroke="#5C5E62" stroke-width="2" stroke-miterlimit="10"/>
</svg>
