<svg width="374" height="89" viewBox="0 0 374 89" fill="none" xmlns="http://www.w3.org/2000/svg">
<path d="M35.6123 68.7617C36.9186 77.5717 16.472 77.8408 14.7411 64.5188C6.32979 66.8752 0.521273 58.7556 4.58919 51.5792C-0.289069 48.2503 -0.198309 38.5392 4.88415 35.6285C1.001 31.4892 5.7107 19.9014 15.1042 21.9694C12.5403 12.6634 26.1216 5.0786 35.6674 12.4948L35.6123 68.7617Z" stroke="#5C5E62" stroke-width="2" stroke-miterlimit="10"/>
<path d="M14.8157 19.8983C15.5158 24.0278 19.1494 27.227 23.2983 27.9693" stroke="#5C5E62" stroke-width="2" stroke-miterlimit="10"/>
<path d="M23.2984 16.7967C22.3389 22.9683 32.6951 25.5581 35.5086 21.555" stroke="#5C5E62" stroke-width="2" stroke-miterlimit="10"/>
<path d="M18.1251 25.8998C18.1089 28.0651 15.2111 30.8397 13.5743 31.4847" stroke="#5C5E62" stroke-width="2" stroke-miterlimit="10"/>
<path d="M11.7137 38.522C14.2646 39.8121 14.323 43.5235 17.0846 44.3468C19.9792 45.209 21.5545 42.0097 22.7181 39.7926C24.4879 36.4054 27.1231 35.0343 30.9544 35.6372C32.2056 35.8349 34.3741 36.7101 35.0969 37.0764" stroke="#5C5E62" stroke-width="2" stroke-miterlimit="10"/>
<path d="M8.81268 38.3156C10.7964 40.7758 13.9762 37.1422 11.9179 35.0062" stroke="#5C5E62" stroke-width="2" stroke-miterlimit="10"/>
<path d="M35.716 51.1484C32.9998 48.4386 28.7666 51.4952 27.8557 54.4286C26.7796 57.8839 30.0501 60.6974 28.8994 64.062C28.2026 66.104 26.5981 67.0051 24.5431 66.6648" stroke="#5C5E62" stroke-width="2" stroke-miterlimit="10"/>
<path d="M14.8156 66.2497C11.6261 57.9032 27.4375 60.2532 20.608 47.6281" stroke="#5C5E62" stroke-width="2" stroke-miterlimit="10"/>
<path d="M4.46928 51.9743C5.60376 50.1203 8.30705 49.9841 10.2778 50.1041C12.0606 50.2143 14.0637 51.5562 14.8157 51.7669" stroke="#5C5E62" stroke-width="2" stroke-miterlimit="10"/>
<path d="M76.7841 47.6333L77.0823 38.5283L71.5623 38.3468C71.2284 36.4571 70.7066 34.6322 70.0129 32.8916L75.0759 30.117L70.6936 22.1302L65.3097 25.0831C64.1493 23.7217 62.8625 22.4706 61.4654 21.3491L64.6809 15.9133L56.84 11.2717L53.5241 16.876C51.9164 16.2925 50.2341 15.8517 48.5032 15.5665V8.99298H44.001V75.0066H48.5032V70.929C50.2179 70.6502 51.8807 70.2159 53.4755 69.6389L55.417 73.2854L63.4589 69.0133L61.4265 65.1853C62.9273 63.9827 64.3081 62.6376 65.5366 61.1595L69.3355 63.5808L74.2332 55.8955L70.1393 53.2895C70.8524 51.4387 71.3775 49.4873 71.6822 47.468L76.7841 47.6333Z" stroke="#5C5E62" stroke-width="2" stroke-miterlimit="10"/>
<path d="M43.9977 22.0848V28.3666C51.5047 28.3958 57.5823 34.4863 57.5823 41.9998C57.5823 49.5133 51.508 55.607 43.9977 55.633V61.9115C54.9697 61.8823 63.8608 52.9783 63.8608 41.9998C63.8608 31.018 54.9697 22.114 43.9977 22.0848Z" fill="#E55E33" stroke="#5C5E62" stroke-width="2" stroke-miterlimit="10"/>
<path d="M243.202 57.6493C243.202 60.0253 241.277 61.9474 238.904 61.9474H165.38C163.004 61.9474 161.082 60.0253 161.082 57.6493V10.9931C161.082 8.61721 163.004 6.69183 165.38 6.69183H238.904C241.277 6.69183 243.202 8.61721 243.202 10.9931V57.6493Z" fill="#E55E33" stroke="#5C5E62" stroke-width="2" stroke-miterlimit="10"/>
<path d="M238.337 11.6932H165.948V56.9491H238.337V11.6932Z" fill="white" stroke="#5C5E62" stroke-width="2" stroke-miterlimit="10" stroke-linecap="round" stroke-linejoin="round"/>
<path d="M209.904 61.9468H194.381V73.58H209.904V61.9468Z" fill="#E55E33" stroke="#5C5E62" stroke-width="2" stroke-miterlimit="10"/>
<path d="M215.012 73.5809H209.732H202.144H194.556H189.272C189.272 73.5809 185.924 73.5809 185.571 77.3084H202.141H218.711C218.36 73.5809 215.012 73.5809 215.012 73.5809Z" fill="white" stroke="#5C5E62" stroke-width="2" stroke-miterlimit="10" stroke-linecap="round" stroke-linejoin="round"/>
<path d="M171.014 29.9176V52.2668H190.877" stroke="#5C5E62" stroke-width="2" stroke-miterlimit="10"/>
<path d="M216.283 34.4982C216.283 34.0703 216.26 33.6457 216.224 33.2276L219.057 32.4853L217.787 27.6362L214.899 28.3915C214.289 27.1241 213.498 25.9605 212.555 24.9362L214.409 22.5343L210.439 19.4712L208.562 21.9023C207.35 21.2832 206.034 20.8359 204.65 20.5895V17.4973H199.635V20.5895C198.319 20.8229 197.068 21.2378 195.904 21.8115L194.063 19.3513L190.05 22.3593L191.869 24.7903C191.175 25.5261 190.563 26.3267 190.034 27.1954L187.217 26.1582L185.483 30.8646L188.248 31.8759C188.086 32.7252 188.002 33.6003 188.002 34.495C188.002 34.8061 188.015 35.1141 188.034 35.4188L185.231 36.1545L186.498 41.0036L189.24 40.2873C189.836 41.6098 190.627 42.8253 191.577 43.8949L189.872 46.1055L193.843 49.1686L195.522 46.9937C196.789 47.6646 198.17 48.1508 199.632 48.4101V51.1426H204.646V48.4101C206.037 48.1606 207.353 47.71 208.572 47.0877L210.218 49.2885L214.231 46.2806L212.558 44.0473C213.268 43.2758 213.891 42.4233 214.413 41.5093L217.061 42.4817L218.792 37.7752L216.092 36.7801C216.215 36.0411 216.283 35.2761 216.283 34.4982ZM202.144 43.9468C196.825 43.9468 192.514 39.6358 192.514 34.3199C192.514 29.0041 196.825 24.6898 202.144 24.6898C207.46 24.6898 211.771 29.0009 211.771 34.3199C211.771 39.639 207.46 43.9468 202.144 43.9468Z" stroke="#5C5E62" stroke-width="2" stroke-miterlimit="10"/>
<path d="M331.935 72.6601L350.923 18.0788L344.067 15.6931L327.202 71.0135V83L331.935 72.6601Z" stroke="#5C5E62" stroke-width="2" stroke-miterlimit="10"/>
<path d="M372.436 83L372.679 72.6601L356.556 15.6931L349.697 18.0788L372.436 83Z" stroke="#5C5E62" stroke-width="2" stroke-miterlimit="10"/>
<path d="M358.391 18.6304C358.391 23.0938 354.773 26.7111 350.31 26.7111C345.847 26.7111 342.229 23.0905 342.229 18.6304C342.229 14.1703 345.847 10.5529 350.31 10.5529C354.773 10.5497 358.391 14.167 358.391 18.6304Z" fill="#E55E33" stroke="#5C5E62" stroke-width="2" stroke-miterlimit="10"/>
<path d="M372.682 30.6063C366.708 36.1295 358.718 39.507 349.94 39.507C341.163 39.507 333.173 36.1295 327.202 30.6063" stroke="#5C5E62" stroke-width="2" stroke-miterlimit="10"/>
<path d="M350.31 33.0504V43.3158" stroke="#5C5E62" stroke-width="2" stroke-miterlimit="10"/>
<path d="M350.31 10.5491C351.256 10.5491 352.164 10.7111 353.007 11.0126V3.69682C353.007 2.20903 351.801 1 350.31 1C348.822 1 347.616 2.20903 347.616 3.69682V11.0126C348.459 10.7144 349.367 10.5491 350.31 10.5491Z" fill="#E55E33" stroke="#5C5E62" stroke-width="2" stroke-miterlimit="10"/>
<path d="M338.278 61.7587C338.278 64.8121 335.798 67.2918 332.742 67.2918C329.682 67.2918 327.202 64.8153 327.202 61.7587C327.202 58.6989 329.682 56.2192 332.742 56.2192C335.798 56.2225 338.278 58.6989 338.278 61.7587Z" fill="#E55E33" stroke="#5C5E62" stroke-width="2" stroke-miterlimit="10"/>
</svg>
