<svg width="443" height="73" viewBox="0 0 443 73" fill="none" xmlns="http://www.w3.org/2000/svg">
<path d="M3 68.1203H66.2411V4.87921L3 68.1203ZM54.4126 56.366H30.8886L54.4126 32.842V56.366Z" fill="#E55E33" stroke="#5C5E62" stroke-width="2" stroke-miterlimit="10"/>
<path d="M10.7455 64.8336V68.1186" stroke="#5C5E62" stroke-width="2" stroke-miterlimit="10"/>
<path d="M14.7296 64.8336V68.1186" stroke="#5C5E62" stroke-width="2" stroke-miterlimit="10"/>
<path d="M18.7136 64.8336V68.1186" stroke="#5C5E62" stroke-width="2" stroke-miterlimit="10"/>
<path d="M22.6977 64.8336V68.1186" stroke="#5C5E62" stroke-width="2" stroke-miterlimit="10"/>
<path d="M26.6849 64.8336V68.1186" stroke="#5C5E62" stroke-width="2" stroke-miterlimit="10"/>
<path d="M30.6659 64.8336V68.1186" stroke="#5C5E62" stroke-width="2" stroke-miterlimit="10"/>
<path d="M34.65 64.8336V68.1186" stroke="#5C5E62" stroke-width="2" stroke-miterlimit="10"/>
<path d="M38.634 64.8336V68.1186" stroke="#5C5E62" stroke-width="2" stroke-miterlimit="10"/>
<path d="M42.6181 64.8336V68.1186" stroke="#5C5E62" stroke-width="2" stroke-miterlimit="10"/>
<path d="M46.6022 64.8336V68.1186" stroke="#5C5E62" stroke-width="2" stroke-miterlimit="10"/>
<path d="M50.5863 64.8336V68.1186" stroke="#5C5E62" stroke-width="2" stroke-miterlimit="10"/>
<path d="M54.5734 64.8336V68.1186" stroke="#5C5E62" stroke-width="2" stroke-miterlimit="10"/>
<path d="M58.5544 64.8336V68.1186" stroke="#5C5E62" stroke-width="2" stroke-miterlimit="10"/>
<path d="M62.5385 64.8336V68.1186" stroke="#5C5E62" stroke-width="2" stroke-miterlimit="10"/>
<path d="M90.8292 55.6024C90.8292 56.8088 89.8517 57.7893 88.6422 57.7893H63.3706C62.1611 57.7893 61.1805 56.8088 61.1805 55.6024V17.8372C61.1805 16.6277 62.1611 15.6472 63.3706 15.6472H88.6422C89.8517 15.6472 90.8292 16.6277 90.8292 17.8372V55.6024Z" fill="white" stroke="#5C5E62" stroke-width="2" stroke-miterlimit="10"/>
<path d="M87.4699 20.7221H64.5336V25.8167H87.4699V20.7221Z" fill="#E55E33" stroke="#5C5E62" stroke-width="2" stroke-miterlimit="10"/>
<path d="M70.9923 30.2162H66.6494V34.556H70.9923V30.2162Z" fill="#E55E33" stroke="#5C5E62" stroke-width="2" stroke-miterlimit="10"/>
<path d="M78.1747 30.2162H73.8349V34.556H78.1747V30.2162Z" fill="#E55E33" stroke="#5C5E62" stroke-width="2" stroke-miterlimit="10"/>
<path d="M85.3603 30.2162H81.0205V34.556H85.3603V30.2162Z" fill="#E55E33" stroke="#5C5E62" stroke-width="2" stroke-miterlimit="10"/>
<path d="M70.9923 37.5098H66.6494V41.8496H70.9923V37.5098Z" fill="#E55E33" stroke="#5C5E62" stroke-width="2" stroke-miterlimit="10"/>
<path d="M78.1748 37.5097H73.835V41.8495H78.1748V37.5097Z" fill="#E55E33" stroke="#5C5E62" stroke-width="2" stroke-miterlimit="10"/>
<path d="M85.3603 37.5097H81.0205V41.8495H85.3603V37.5097Z" fill="#E55E33" stroke="#5C5E62" stroke-width="2" stroke-miterlimit="10"/>
<path d="M70.9923 44.8054H66.6494V49.1452H70.9923V44.8054Z" fill="#E55E33" stroke="#5C5E62" stroke-width="2" stroke-miterlimit="10"/>
<path d="M78.1747 44.8054H73.8349V49.1452H78.1747V44.8054Z" fill="#E55E33" stroke="#5C5E62" stroke-width="2" stroke-miterlimit="10"/>
<path d="M85.3603 44.8054H81.0205V49.1452H85.3603V44.8054Z" fill="#E55E33" stroke="#5C5E62" stroke-width="2" stroke-miterlimit="10"/>
<path d="M88.0577 48.3409V52.9932C88.0577 54.2026 87.0771 55.1832 85.8677 55.1832H78.6264" stroke="#5C5E62" stroke-width="2" stroke-miterlimit="10"/>
<path d="M10.566 50.3744L6.49841 46.3099L37.2235 15.588L41.288 19.6556L10.566 50.3744Z" fill="#E55E33" stroke="#5C5E62" stroke-width="2" stroke-miterlimit="10" stroke-linecap="round" stroke-linejoin="round"/>
<path d="M41.288 19.6542L37.2235 15.5866L39.3764 13.4307L43.444 17.4983L41.288 19.6542Z" stroke="#5C5E62" stroke-width="2" stroke-miterlimit="10" stroke-linecap="round" stroke-linejoin="round"/>
<path d="M43.4439 17.4991L44.6132 16.3267C45.736 15.2039 45.736 13.3851 44.6132 12.2622C43.4903 11.1394 41.6684 11.1394 40.5487 12.2622L39.3763 13.4346L43.4439 17.4991Z" stroke="#5C5E62" stroke-width="2" stroke-miterlimit="10" stroke-linecap="round" stroke-linejoin="round"/>
<path d="M6.49844 46.3083L10.566 50.3729L3.66504 53.2093L6.49844 46.3083Z" stroke="#5C5E62" stroke-width="2" stroke-miterlimit="10" stroke-linecap="round" stroke-linejoin="round"/>
<path d="M5.06627 49.8046L3.66504 53.2103L7.07378 51.8121L5.06627 49.8046Z" stroke="#5C5E62" stroke-width="2" stroke-miterlimit="10" stroke-linecap="round" stroke-linejoin="round"/>
<path d="M39.2557 17.6233L8.53375 48.3422" stroke="#5C5E62" stroke-width="2" stroke-miterlimit="10" stroke-linecap="round" stroke-linejoin="round"/>
<path d="M241.343 56.6744C241.343 60.5811 238.178 63.7486 234.269 63.7486H191.155C187.248 63.7486 184.081 60.5842 184.081 56.6744V16.3232C184.081 12.4164 187.245 9.24896 191.155 9.24896H234.269C238.178 9.24896 241.343 12.4133 241.343 16.3232V56.6744Z" fill="#E55E33" stroke="#5C5E62" stroke-width="2" stroke-miterlimit="10"/>
<path d="M230.235 48.8442C230.235 51.2384 228.296 53.1748 225.905 53.1748H199.519C197.125 53.1748 195.186 51.2384 195.186 48.8442V24.151C195.186 21.7599 197.125 19.8204 199.519 19.8204H225.905C228.296 19.8204 230.235 21.7599 230.235 24.151V48.8442Z" fill="white" stroke="#5C5E62" stroke-width="2" stroke-miterlimit="10"/>
<path d="M222.74 36.6232C222.74 36.3232 222.725 36.0201 222.7 35.7231L224.707 35.1973L223.807 31.7545L221.76 32.2958C221.33 31.3957 220.767 30.5698 220.102 29.8429L221.416 28.1416L218.601 25.967L217.268 27.6931C216.411 27.2507 215.477 26.9352 214.497 26.7589V24.5689H210.939V26.7589C210.005 26.926 209.118 27.2198 208.292 27.625L206.986 25.8835L204.137 28.0148L205.43 29.7377C204.939 30.2574 204.499 30.8265 204.128 31.4452L202.13 30.709L200.902 34.0497L202.863 34.7704C202.749 35.3736 202.69 35.9953 202.69 36.6263C202.69 36.8459 202.696 37.0625 202.711 37.2821L200.723 37.8018L201.623 41.2445L203.568 40.7341C203.992 41.6745 204.552 42.5375 205.229 43.2922L204.017 44.8605L206.835 47.032L208.026 45.4884C208.926 45.9648 209.906 46.3081 210.943 46.4937V48.4332H214.5V46.4937C215.483 46.3143 216.421 45.9957 217.281 45.5534L218.45 47.1155L221.299 44.9811L220.114 43.3974C220.618 42.8499 221.057 42.2436 221.429 41.5971L223.306 42.2869L224.534 38.9524L222.616 38.2472C222.694 37.7182 222.74 37.18 222.74 36.6232ZM212.709 43.3294C208.938 43.3294 205.882 40.2732 205.882 36.4995C205.882 32.7258 208.938 29.6696 212.709 29.6696C216.483 29.6696 219.539 32.7258 219.539 36.4995C219.542 40.2732 216.483 43.3294 212.709 43.3294Z" fill="#E55E33" stroke="#5C5E62" stroke-width="2" stroke-miterlimit="10"/>
<path d="M192.569 0V9.24876" stroke="#5C5E62" stroke-width="2" stroke-miterlimit="10"/>
<path d="M199.284 0V9.24876" stroke="#5C5E62" stroke-width="2" stroke-miterlimit="10"/>
<path d="M205.997 0V9.24876" stroke="#5C5E62" stroke-width="2" stroke-miterlimit="10"/>
<path d="M212.709 0V9.24876" stroke="#5C5E62" stroke-width="2" stroke-miterlimit="10"/>
<path d="M219.427 0V9.24876" stroke="#5C5E62" stroke-width="2" stroke-miterlimit="10"/>
<path d="M226.14 0V9.24876" stroke="#5C5E62" stroke-width="2" stroke-miterlimit="10"/>
<path d="M232.855 0V9.24876" stroke="#5C5E62" stroke-width="2" stroke-miterlimit="10"/>
<path d="M250.595 16.3572H241.343" stroke="#5C5E62" stroke-width="2" stroke-miterlimit="10"/>
<path d="M250.595 23.0685H241.343" stroke="#5C5E62" stroke-width="2" stroke-miterlimit="10"/>
<path d="M250.595 29.7883H241.343" stroke="#5C5E62" stroke-width="2" stroke-miterlimit="10"/>
<path d="M250.595 36.4998H241.343" stroke="#5C5E62" stroke-width="2" stroke-miterlimit="10"/>
<path d="M250.595 43.2134H241.343" stroke="#5C5E62" stroke-width="2" stroke-miterlimit="10"/>
<path d="M250.595 49.9269H241.343" stroke="#5C5E62" stroke-width="2" stroke-miterlimit="10"/>
<path d="M250.595 56.6405H241.343" stroke="#5C5E62" stroke-width="2" stroke-miterlimit="10"/>
<path d="M232.855 72.9995V63.7477" stroke="#5C5E62" stroke-width="2" stroke-miterlimit="10"/>
<path d="M226.14 72.9995V63.7477" stroke="#5C5E62" stroke-width="2" stroke-miterlimit="10"/>
<path d="M219.427 72.9995V63.7477" stroke="#5C5E62" stroke-width="2" stroke-miterlimit="10"/>
<path d="M212.709 72.9995V63.7477" stroke="#5C5E62" stroke-width="2" stroke-miterlimit="10"/>
<path d="M205.996 72.9995V63.7477" stroke="#5C5E62" stroke-width="2" stroke-miterlimit="10"/>
<path d="M199.284 72.9995V63.7477" stroke="#5C5E62" stroke-width="2" stroke-miterlimit="10"/>
<path d="M192.569 72.9995V63.7477" stroke="#5C5E62" stroke-width="2" stroke-miterlimit="10"/>
<path d="M174.829 56.6405H184.081" stroke="#5C5E62" stroke-width="2" stroke-miterlimit="10"/>
<path d="M174.829 49.9269H184.081" stroke="#5C5E62" stroke-width="2" stroke-miterlimit="10"/>
<path d="M174.829 43.2134H184.081" stroke="#5C5E62" stroke-width="2" stroke-miterlimit="10"/>
<path d="M174.829 36.4998H184.081" stroke="#5C5E62" stroke-width="2" stroke-miterlimit="10"/>
<path d="M174.829 29.7883H184.081" stroke="#5C5E62" stroke-width="2" stroke-miterlimit="10"/>
<path d="M174.829 23.0685H184.081" stroke="#5C5E62" stroke-width="2" stroke-miterlimit="10"/>
<path d="M174.829 16.3572H184.081" stroke="#5C5E62" stroke-width="2" stroke-miterlimit="10"/>
<path d="M193.265 17.0428C193.265 18.1997 192.324 19.1369 191.171 19.1369C190.014 19.1369 189.077 18.1997 189.077 17.0428C189.077 15.8828 190.014 14.9487 191.171 14.9487C192.328 14.9487 193.265 15.8859 193.265 17.0428Z" stroke="#5C5E62" stroke-width="2" stroke-miterlimit="10"/>
<path d="M193.265 55.9584C193.265 57.1122 192.324 58.0525 191.171 58.0525C190.014 58.0525 189.077 57.1122 189.077 55.9584C189.077 54.8015 190.014 53.8643 191.171 53.8643C192.328 53.8612 193.265 54.8015 193.265 55.9584Z" stroke="#5C5E62" stroke-width="2" stroke-miterlimit="10"/>
<path d="M237.043 17.0428C237.043 18.1997 236.103 19.1369 234.949 19.1369C233.792 19.1369 232.855 18.1997 232.855 17.0428C232.855 15.8828 233.795 14.9487 234.949 14.9487C236.106 14.9487 237.043 15.8859 237.043 17.0428Z" stroke="#5C5E62" stroke-width="2" stroke-miterlimit="10"/>
<path d="M237.043 55.9584C237.043 57.1122 236.103 58.0525 234.949 58.0525C233.792 58.0525 232.855 57.1122 232.855 55.9584C232.855 54.8015 233.795 53.8643 234.949 53.8643C236.106 53.8612 237.043 54.8015 237.043 55.9584Z" stroke="#5C5E62" stroke-width="2" stroke-miterlimit="10"/>
<path d="M407.431 55.749H372.852V69.0375H407.431V55.749Z" fill="#E55E33" stroke="#5C5E62" stroke-width="2" stroke-miterlimit="10"/>
<path d="M366.851 20.3198C366.851 20.3198 362.889 23.9543 364.343 29.8469C364.343 29.8469 367.525 39.6896 375.611 47.3237V55.7497H405.028V47.8496L409.034 44.3759C409.034 44.3759 411.91 42.1611 411.892 38.3193V16.5027H396.339" fill="white"/>
<path d="M366.851 20.3198C366.851 20.3198 362.889 23.9543 364.343 29.8469C364.343 29.8469 367.525 39.6896 375.611 47.3237V55.7497H405.028V47.8496L409.034 44.3759C409.034 44.3759 411.91 42.1611 411.892 38.3193V16.5027H396.339" stroke="#5C5E62" stroke-width="2" stroke-miterlimit="10"/>
<path d="M414.014 13.2179C413.939 13.2117 413.868 13.2055 413.788 13.2055H362.867C362.542 13.2055 362.251 13.2365 361.976 13.289C359.789 7.8233 354.447 3.96295 348.202 3.96295C342.108 3.96295 336.881 7.63771 334.595 12.89H348.202V24.7062H334.595C336.881 29.9554 342.108 33.6301 348.202 33.6301C354.447 33.6301 359.789 29.7667 361.976 24.304C362.251 24.3566 362.545 24.3907 362.867 24.3907H413.791C413.837 24.3907 413.874 24.3814 413.921 24.3814C416.092 29.8688 421.45 33.757 427.71 33.757C433.801 33.757 439.035 30.0822 441.318 24.8299H427.71V13.0137H441.318C439.032 7.76144 433.801 4.08977 427.71 4.08977C421.539 4.08977 416.25 7.85733 414.014 13.2179Z" fill="#E55E33" stroke="#5C5E62" stroke-width="2" stroke-miterlimit="10"/>
<path d="M410.258 17.3984C411.063 17.3984 411.718 18.0541 411.718 18.8584C411.718 19.6657 411.063 20.3184 410.258 20.3184H365.657C364.847 20.3184 364.194 19.6657 364.194 18.8584C364.194 18.051 364.847 17.3984 365.657 17.3984H410.258Z" fill="white" stroke="#5C5E62" stroke-width="2" stroke-miterlimit="10"/>
<path d="M348.944 7.87457C354.942 8.01377 359.687 12.9908 359.548 18.9886" stroke="#5C5E62" stroke-width="2" stroke-miterlimit="10"/>
<path d="M429.826 29.8472C423.832 29.7049 419.083 24.731 419.223 18.7332" stroke="#5C5E62" stroke-width="2" stroke-miterlimit="10"/>
<path d="M384.535 18.7207C384.535 21.186 382.537 23.1812 380.075 23.1812C377.609 23.1812 375.611 21.186 375.611 18.7207V10.369C375.611 7.9037 377.609 5.90857 380.075 5.90857C382.537 5.90857 384.535 7.9037 384.535 10.369V18.7207Z" fill="white" stroke="#5C5E62" stroke-width="2" stroke-miterlimit="10"/>
<path d="M394.05 18.0889C394.05 20.5511 392.052 22.5493 389.589 22.5493C387.127 22.5493 385.126 20.5511 385.126 18.0889V8.42254C385.126 5.95723 387.124 3.9621 389.589 3.9621C392.052 3.9621 394.05 5.95723 394.05 8.42254V18.0889Z" fill="white" stroke="#5C5E62" stroke-width="2" stroke-miterlimit="10"/>
<path d="M402.968 16.4905C402.968 18.9527 400.972 20.951 398.507 20.951C396.045 20.951 394.05 18.9527 394.05 16.4905V10.369C394.05 7.9037 396.045 5.90857 398.507 5.90857C400.969 5.90857 402.968 7.9037 402.968 10.369V16.4905Z" fill="white" stroke="#5C5E62" stroke-width="2" stroke-miterlimit="10"/>
<path d="M411.892 16.5038C411.892 18.966 409.893 20.9643 407.434 20.9643C404.972 20.9643 402.971 18.966 402.971 16.5038V12.3342C402.971 9.86885 404.969 7.87372 407.434 7.87372C409.897 7.87372 411.892 9.86885 411.892 12.3342V16.5038Z" fill="white" stroke="#5C5E62" stroke-width="2" stroke-miterlimit="10"/>
<path d="M384.733 39.6888C386.422 26.261 375.218 23.1802 375.218 23.1802H388.176C394.05 21.9151 394.05 14.5439 394.05 14.5439H373.696L366.851 20.3189C366.851 20.3189 363.152 24.3494 364.342 29.8461C364.342 29.8461 367.129 38.9 375.611 47.3229" fill="white"/>
<path d="M384.733 39.6888C386.422 26.261 375.218 23.1802 375.218 23.1802H388.176C394.05 21.9151 394.05 14.5439 394.05 14.5439H373.696L366.851 20.3189C366.851 20.3189 363.152 24.3494 364.342 29.8461C364.342 29.8461 367.129 38.9 375.611 47.3229" stroke="#5C5E62" stroke-width="2" stroke-miterlimit="10" stroke-linejoin="round"/>
<path d="M404.452 62.3936C404.452 63.7021 403.388 64.7631 402.08 64.7631C400.771 64.7631 399.711 63.7021 399.711 62.3936C399.711 61.0883 400.771 60.0242 402.08 60.0242C403.385 60.0242 404.452 61.0883 404.452 62.3936Z" fill="white" stroke="#5C5E62" stroke-width="2" stroke-miterlimit="10"/>
</svg>
