<svg width="341" height="82" viewBox="0 0 341 82" fill="none" xmlns="http://www.w3.org/2000/svg">
<path d="M41.7138 63.9223V60.9424C42.0613 56.7668 41.7765 54.8761 44.2305 53.6241C52.3689 48.6284 57.7997 39.6511 57.7997 29.403C57.7997 13.7178 45.085 1 29.3998 1C13.7147 1 1 13.7178 1 29.403C1 39.6511 6.42767 48.6284 14.5661 53.6241C17.3707 55.7244 16.7353 56.7668 17.0827 60.9424V63.9223H41.7138Z" stroke="#5C5E62" stroke-width="2" stroke-miterlimit="10" stroke-linecap="round" stroke-linejoin="round"/>
<path d="M41.7233 63.9222H17.0827V73.9982H41.7233V63.9222Z" stroke="#5C5E62" stroke-width="2" stroke-miterlimit="10" stroke-linecap="round" stroke-linejoin="round"/>
<path d="M17.0827 67.4341H41.7233" stroke="#5C5E62" stroke-width="2" stroke-miterlimit="10" stroke-linecap="round" stroke-linejoin="round"/>
<path d="M17.0827 70.7322H41.7233" stroke="#5C5E62" stroke-width="2" stroke-miterlimit="10" stroke-linecap="round" stroke-linejoin="round"/>
<path d="M22.1097 73.9995C22.6324 77.5616 25.6937 80.3036 29.403 80.3036C33.1122 80.3036 36.1766 77.5648 36.6962 73.9995H22.1097Z" stroke="#5C5E62" stroke-width="2" stroke-miterlimit="10" stroke-linecap="round" stroke-linejoin="round"/>
<path d="M49.2012 32.4292L49.3796 26.9389L46.0491 26.8325C45.8488 25.6931 45.5326 24.5913 45.1163 23.5396L48.1682 21.8681L45.5233 17.0477L42.2773 18.8287C41.5761 18.0055 40.7999 17.2511 39.9578 16.5781L41.8985 13.3009L37.1689 10.4994L35.1687 13.8799C34.1984 13.5262 33.1842 13.2633 32.1387 13.0911V9.12524H26.6453V13.0943C25.8502 13.2257 25.0771 13.4073 24.3228 13.6389L22.476 10.1613L17.6242 12.7406L19.4178 16.1211C18.6353 16.6908 17.9059 17.3294 17.233 18.0274L14.0777 16.0178L11.126 20.6473L14.0997 22.5442C13.6176 23.5615 13.2358 24.6289 12.9634 25.7432L9.58599 25.6337L9.40759 31.1271L12.5409 31.2272C12.641 32.4511 12.8726 33.6375 13.2232 34.7737L10.619 36.201L13.2608 41.0152L15.6804 39.6912C16.4254 40.721 17.2799 41.6632 18.2346 42.4958L16.8917 44.7651L21.6183 47.5604L22.8923 45.4099C24.0817 45.9045 25.34 46.2645 26.6484 46.4773V48.9408H32.1419V46.4773C33.1748 46.3114 34.1796 46.0485 35.1437 45.701L36.3143 47.9015L41.1629 45.3223L39.939 43.0154C40.8468 42.2892 41.6763 41.4785 42.4181 40.5864L44.7094 42.0482L47.6611 37.4155L45.1946 35.8442C45.6234 34.7267 45.9395 33.5498 46.1242 32.3322L49.2012 32.4292Z" stroke="#5C5E62" stroke-width="2" stroke-miterlimit="10"/>
<path d="M29.3967 17.0236C22.7639 17.0236 17.3863 22.4012 17.3863 29.0339C17.3863 35.6667 22.7639 41.0443 29.3967 41.0443C36.0326 41.0443 41.4071 35.6667 41.4071 29.0339C41.4071 22.4012 36.0295 17.0236 29.3967 17.0236ZM29.3967 37.2568C24.8549 37.2568 21.1738 33.5758 21.1738 29.0339C21.1738 24.4921 24.8549 20.8079 29.3967 20.8079C33.9386 20.8079 37.6196 24.4921 37.6196 29.0339C37.6196 33.5758 33.9386 37.2568 29.3967 37.2568Z" fill="#E55E33" stroke="#5C5E62" stroke-width="2" stroke-miterlimit="10"/>
<path d="M53.3392 29.4252C53.3392 42.2557 42.9378 52.6603 30.1041 52.6603" stroke="#5C5E62" stroke-width="2" stroke-miterlimit="10"/>
<path d="M197.601 76.1831C197.601 78.4587 195.757 80.3024 193.482 80.3024H145.919C143.643 80.3024 141.8 78.4587 141.8 76.1831V5.11929C141.8 2.84367 143.643 1 145.919 1H193.482C195.757 1 197.601 2.84367 197.601 5.11929V76.1831Z" stroke="#5C5E62" stroke-width="2" stroke-miterlimit="10"/>
<path d="M191.284 10.5433H148.119V20.1341H191.284V10.5433Z" fill="#E55E33" stroke="#5C5E62" stroke-width="2" stroke-miterlimit="10"/>
<path d="M191.284 25.7275H148.119V29.1926H191.284V25.7275Z" stroke="#5C5E62" stroke-width="2" stroke-miterlimit="10"/>
<path d="M160.458 35.8583H152.461V43.8559H160.458V35.8583Z" fill="#E55E33" stroke="#5C5E62" stroke-width="2" stroke-miterlimit="10"/>
<path d="M173.699 35.8583H165.701V43.8559H173.699V35.8583Z" fill="#E55E33" stroke="#5C5E62" stroke-width="2" stroke-miterlimit="10"/>
<path d="M186.94 35.8583H178.942V43.8559H186.94V35.8583Z" fill="#E55E33" stroke="#5C5E62" stroke-width="2" stroke-miterlimit="10"/>
<path d="M160.458 49.3097H152.461V57.3103H160.458V49.3097Z" fill="#E55E33" stroke="#5C5E62" stroke-width="2" stroke-miterlimit="10"/>
<path d="M173.699 49.3097H165.701V57.3103H173.699V49.3097Z" fill="#E55E33" stroke="#5C5E62" stroke-width="2" stroke-miterlimit="10"/>
<path d="M186.94 49.3097H178.942V57.3103H186.94V49.3097Z" fill="#E55E33" stroke="#5C5E62" stroke-width="2" stroke-miterlimit="10"/>
<path d="M160.455 62.7562H152.458V70.7568H160.455V62.7562Z" fill="#E55E33" stroke="#5C5E62" stroke-width="2" stroke-miterlimit="10"/>
<path d="M173.699 62.7562H165.701V70.7568H173.699V62.7562Z" fill="#E55E33" stroke="#5C5E62" stroke-width="2" stroke-miterlimit="10"/>
<path d="M186.94 62.7562H178.942V70.7568H186.94V62.7562Z" fill="#E55E33" stroke="#5C5E62" stroke-width="2" stroke-miterlimit="10"/>
<path d="M192.386 48.5244V71.2743C192.386 73.5499 190.542 75.3936 188.267 75.3936H174.638" stroke="#5C5E62" stroke-width="2" stroke-miterlimit="10"/>
<path d="M339.393 11.2601H281.601V80.2987H339.393V11.2601Z" fill="#E55E33" stroke="#5C5E62" stroke-width="2" stroke-miterlimit="10"/>
<path d="M334.804 11.2601H286.193V75.6724H334.804V11.2601Z" fill="white" stroke="#5C5E62" stroke-width="2" stroke-miterlimit="10"/>
<path d="M291.924 37.095H329.073" stroke="#5C5E62" stroke-width="2" stroke-miterlimit="10"/>
<path d="M291.924 49.4789H300.62" stroke="#5C5E62" stroke-width="2" stroke-miterlimit="10"/>
<path d="M304.041 49.4789H329.073" stroke="#5C5E62" stroke-width="2" stroke-miterlimit="10"/>
<path d="M291.924 42.8893H306.154" stroke="#5C5E62" stroke-width="2" stroke-miterlimit="10"/>
<path d="M310.104 42.8893H329.073" stroke="#5C5E62" stroke-width="2" stroke-miterlimit="10"/>
<path d="M291.924 55.7734H329.073" stroke="#5C5E62" stroke-width="2" stroke-miterlimit="10"/>
<path d="M291.924 68.1551H300.62" stroke="#5C5E62" stroke-width="2" stroke-miterlimit="10"/>
<path d="M304.041 68.1551H329.073" stroke="#5C5E62" stroke-width="2" stroke-miterlimit="10"/>
<path d="M291.924 61.5699H306.154" stroke="#5C5E62" stroke-width="2" stroke-miterlimit="10"/>
<path d="M310.104 61.5699H329.073" stroke="#5C5E62" stroke-width="2" stroke-miterlimit="10"/>
<path d="M317.335 8.1117C317.338 8.02719 317.347 7.93954 317.347 7.8519C317.347 4.06755 314.28 1 310.495 1C306.711 1 303.643 4.07068 303.643 7.8519C303.643 7.93954 303.656 8.02719 303.659 8.1117H298.907V15.4863H322.089V8.1117H317.335Z" fill="#E55E33" stroke="#5C5E62" stroke-width="2" stroke-miterlimit="10"/>
<path d="M317.3 26.3332C317.3 26.1266 317.291 25.9232 317.272 25.7228L318.634 25.3629L318.023 23.0309L316.637 23.394C316.346 22.7836 315.967 22.2265 315.51 21.7319L316.402 20.58L314.492 19.1057L313.591 20.2764C313.006 19.9759 312.376 19.763 311.71 19.6441V18.1604H309.3V19.6441C308.667 19.7568 308.063 19.9571 307.506 20.2326L306.617 19.0494L304.686 20.4986L305.565 21.6662C305.23 22.0167 304.933 22.4049 304.683 22.8243L303.327 22.3266L302.495 24.5866L303.825 25.0749C303.747 25.4818 303.703 25.9075 303.703 26.3364C303.703 26.4866 303.712 26.6337 303.718 26.7808L302.369 27.1345L302.98 29.4665L304.298 29.1191C304.582 29.7576 304.964 30.3429 305.421 30.8563L304.598 31.9205L306.507 33.3917L307.318 32.3462C307.922 32.6686 308.589 32.9003 309.293 33.0255V34.3401H311.703V33.0255C312.37 32.9065 313.006 32.6906 313.591 32.3932L314.383 33.4512L316.314 32.0051L315.51 30.9314C315.854 30.5621 316.148 30.1489 316.402 29.7107L317.676 30.177L318.508 27.9139L317.209 27.4319C317.266 27.0751 317.3 26.7057 317.3 26.3332ZM310.498 29.3945C308.758 29.3945 307.349 27.9859 307.349 26.2456C307.349 24.5052 308.758 23.0998 310.498 23.0998C312.236 23.0998 313.647 24.5052 313.647 26.2456C313.647 27.9859 312.236 29.3945 310.498 29.3945Z" stroke="#5C5E62" stroke-width="2" stroke-miterlimit="10"/>
</svg>
